#!OML:ASF H:\Terrain\Patient Classification 1\Terrain2\Thursday\justin.ASF
:FULLY-SPECIFIED
:DEGREES
2788
root 1.61886 23.912 0.268949 1127.86 -87.9785 -405.807
lowerback 11.2152 0.53713 -1.63024
upperback 0.784535 0.560653 1.6192
thorax -5.50515 0.316927 2.53127
lowerneck -17.9276 0.175375 -7.06297
upperneck 28.1745 0.852249 3.88462
head 12.2175 -0.0394106 2.77657
rclavicle -3.05631e-015 0
rhumerus -31.59 -6.86354 -82.1394
rradius 28.0819
rwrist -9.0833
rhand -22.5108 9.69847
rfingers 7.12502
rthumb 3.91556 -20.2453
lclavicle -3.05631e-015 0
lhumerus -33.1028 4.28564 83.6439
lradius 34.9651
lwrist 10.2997
lhand -23.2214 20.8255
lfingers 7.12502
lthumb 3.22926 50.7808
rfemur -25.6256 -4.09932 18.9236
rtibia 46.724
rfoot -16.7711 7.35879
rtoes -6.74939
lfemur -10.2561 1.13025 -17.3309
ltibia 23.6518
lfoot -7.92027 -16.1483
ltoes 25.3605
2789
root 1.55846 23.9054 0.244857 1111.63 -87.8365 -389.787
lowerback 11.1912 0.460364 -2.00841
upperback 0.860848 0.406403 1.53771
thorax -5.40485 0.247012 2.68387
lowerneck -17.7518 0.21671 -7.01138
upperneck 28.116 0.917854 3.76278
head 12.1556 -0.0205727 2.72747
rclavicle -2.88238e-015 1.25234e-014
rhumerus -31.4627 -7.25917 -82.1982
rradius 28.218
rwrist -9.18964
rhand -22.5085 9.67782
rfingers 7.12502
rthumb 3.91774 -20.2659
lclavicle -2.88238e-015 1.25234e-014
lhumerus -32.8196 4.68074 83.5735
lradius 34.7091
lwrist 9.96893
lhand -23.2624 20.9412
lfingers 7.12502
lthumb 3.18969 50.8971
rfemur -25.0966 -2.91474 18.1908
rtibia 45.1095
rfoot -16.8442 8.41181
rtoes -6.52017
lfemur -9.86123 1.37659 -17.5918
ltibia 23.6673
lfoot -8.05106 -17.0863
ltoes 24.7469
2790
root 1.49827 23.893 0.21957 1097.16 -87.5415 -375.48
lowerback 11.1495 0.378932 -2.45858
upperback 0.909782 0.239372 1.47073
thorax -5.3215 0.172862 2.89433
lowerneck -17.6985 0.262651 -7.14937
upperneck 28.2249 1.02037 3.75235
head 12.1807 0.00371251 2.76414
rclavicle -3.2054e-015 -1.19271e-014
rhumerus -31.2876 -7.18724 -82.2975
rradius 28.3709
rwrist -9.43039
rhand -22.6153 9.24538
rfingers 7.12502
rthumb 3.81457 -20.7002
lclavicle -3.2054e-015 -1.19271e-014
lhumerus -32.5683 5.3007 83.4655
lradius 34.4563
lwrist 9.65315
lhand -22.9375 20.6726
lfingers 7.12502
lthumb 3.50342 50.6235
rfemur -24.6552 -1.86007 17.4208
rtibia 43.609
rfoot -16.6253 9.73299
rtoes -5.02066
lfemur -9.55545 1.63878 -17.918
ltibia 23.7203
lfoot -8.18496 -17.9643
ltoes 23.6461
2791
root 1.4409 23.8772 0.19291 1090.28 -87.0577 -368.691
lowerback 11.0362 0.261361 -2.703
upperback 0.930502 0.0559669 1.46907
thorax -5.2241 0.0864247 3.05873
lowerneck -17.7458 0.382 -7.27252
upperneck 28.4868 1.2256 3.74783
head 12.28 0.0706025 2.821
rclavicle 3.15571e-015 1.59028e-015
rhumerus -31.0848 -7.15844 -82.4374
rradius 28.447
rwrist -9.44806
rhand -23.0748 8.68507
rfingers 7.12502
rthumb 3.37087 -21.268
lclavicle 3.15571e-015 1.59028e-015
lhumerus -32.5238 5.71467 83.4608
lradius 34.3699
lwrist 9.2735
lhand -23.1268 20.6564
lfingers 7.12502
lthumb 3.32062 50.6103
rfemur -24.2675 -0.424803 16.822
rtibia 42.2312
rfoot -16.0383 10.5164
rtoes -2.40942
lfemur -9.39312 1.53509 -18.0125
ltibia 23.8848
lfoot -8.15469 -18.5593
ltoes 24.2413
2792
root 1.38256 23.8703 0.164867 1095.68 -86.345 -374.22
lowerback 10.8413 0.119615 -2.15171
upperback 0.978197 -0.0588039 1.53714
thorax -5.05689 0.0147007 2.83332
lowerneck -17.7243 0.465134 -7.18911
upperneck 28.7305 1.3037 3.75215
head 12.3675 0.104568 2.82558
rclavicle 2.45996e-015 -8.34896e-015
rhumerus -30.9255 -7.49721 -82.6252
rradius 28.4958
rwrist -9.35964
rhand -23.4769 8.50333
rfingers 7.12502
rthumb 2.98257 -21.4556
lclavicle 2.45996e-015 -8.34896e-015
lhumerus -32.4795 5.95572 83.3003
lradius 34.3038
lwrist 8.72049
lhand -23.4199 20.7427
lfingers 7.12502
lthumb 3.03756 50.7008
rfemur -23.7305 1.44751 16.919
rtibia 40.9958
rfoot -15.5412 10.614
rtoes 0.546039
lfemur -9.24288 1.26174 -17.3375
ltibia 24.1036
lfoot -7.55483 -19.022
ltoes 26.762
2793
root 1.3232 23.863 0.138883 1099.88 -85.6196 -378.663
lowerback 10.805 0.0722985 -1.42696
upperback 1.03639 -0.0357079 1.55393
thorax -4.97709 0.00840888 2.43638
lowerneck -17.6206 0.456909 -7.00599
upperneck 28.9765 1.24157 3.65322
head 12.4515 0.0727494 2.75105
rclavicle -2.73329e-016 5.76476e-015
rhumerus -30.8551 -8.22422 -82.686
rradius 28.5309
rwrist -9.15689
rhand -23.9377 8.72802
rfingers 7.12502
rthumb 2.53753 -21.2366
lclavicle -2.73329e-016 5.76476e-015
lhumerus -32.3434 5.67754 83.1906
lradius 34.2485
lwrist 8.69456
lhand -23.2717 20.6546
lfingers 7.12502
lthumb 3.18072 50.6106
rfemur -23.1204 2.76576 17.2421
rtibia 39.9968
rfoot -15.3101 10.6134
rtoes 0.179007
lfemur -8.93086 1.14482 -16.6179
ltibia 24.2858
lfoot -7.25049 -19.5831
ltoes 27.5118
2794
root 1.2638 23.8457 0.113629 1095.46 -85.14 -374.46
lowerback 10.7589 0.100739 -1.45584
upperback 1.11921 -0.00678857 1.4616
thorax -4.86605 0.0201265 2.35076
lowerneck -17.5453 0.443147 -6.81712
upperneck 29.1199 1.24143 3.35812
head 12.4997 0.0480513 2.6075
rclavicle 8.79622e-015 -2.18663e-015
rhumerus -30.7154 -9.03714 -82.6167
rradius 28.5141
rwrist -8.74011
rhand -24.1826 8.8885
rfingers 7.12502
rthumb 2.30105 -21.0788
lclavicle 8.79622e-015 -2.18663e-015
lhumerus -32.1573 5.06182 83.4086
lradius 34.2802
lwrist 9.13101
lhand -23.1795 20.8111
lfingers 7.12502
lthumb 3.26979 50.7658
rfemur -22.6354 3.70059 16.8305
rtibia 39.2257
rfoot -15.0636 11.0363
rtoes 0.019462
lfemur -8.64419 0.805757 -16.7289
ltibia 24.4983
lfoot -7.95762 -19.9271
ltoes 26.0653
2795
root 1.20538 23.8278 0.0883998 1086.34 -84.5644 -365.361
lowerback 10.4256 0.0498611 -2.12185
upperback 1.24008 -0.153772 1.32094
thorax -4.54494 -0.0460127 2.59799
lowerneck -17.6223 0.450686 -6.79134
upperneck 29.2555 1.30892 3.1668
head 12.57 0.0510957 2.54398
rclavicle 1.02623e-014 -1.03368e-014
rhumerus -30.3813 -9.46644 -82.5944
rradius 28.4865
rwrist -8.61597
rhand -24.0491 8.76926
rfingers 7.12502
rthumb 2.4299 -21.1966
lclavicle 1.02623e-014 -1.03368e-014
lhumerus -31.8829 4.76425 83.6839
lradius 34.3215
lwrist 9.52283
lhand -23.3199 21.2064
lfingers 7.12502
lthumb 3.13416 51.1631
rfemur -22.3382 4.66876 15.8047
rtibia 38.6589
rfoot -15.1913 11.3348
rtoes 0.0881016
lfemur -8.59378 0.258968 -17.4539
ltibia 24.7235
lfoot -8.63004 -20.0578
ltoes 25.03
2796
root 1.14786 23.8124 0.0633225 1081.7 -83.9387 -360.826
lowerback 10.1522 -0.0164609 -2.48818
upperback 1.36645 -0.280057 1.27778
thorax -4.25141 -0.108882 2.77403
lowerneck -17.6716 0.47937 -6.95133
upperneck 29.494 1.4111 3.12534
head 12.6712 0.0633233 2.5769
rclavicle -4.99446e-015 -1.11319e-014
rhumerus -30.1049 -9.62382 -82.5977
rradius 28.534
rwrist -8.7046
rhand -23.7651 8.85493
rfingers 7.12502
rthumb 2.70422 -21.1077
lclavicle -4.99446e-015 -1.11319e-014
lhumerus -31.5965 4.84929 83.8281
lradius 34.2626
lwrist 9.52192
lhand -23.2988 21.5099
lfingers 7.12502
lthumb 3.15454 51.4663
rfemur -21.9641 5.64932 15.1894
rtibia 38.2599
rfoot -14.9597 11.6572
rtoes 0.513997
lfemur -8.44922 -0.224196 -17.8436
ltibia 24.9111
lfoot -8.90252 -20.1973
ltoes 24.1208
2797
root 1.08962 23.7866 0.0398029 1082.45 -83.3567 -361.845
lowerback 10.1398 -0.0958643 -2.20533
upperback 1.45666 -0.353289 1.34804
thorax -4.14675 -0.152802 2.69653
lowerneck -17.611 0.570143 -7.0261
upperneck 29.798 1.60383 2.94845
head 12.7738 0.101526 2.55635
rclavicle -2.79541e-014 4.57205e-015
rhumerus -30.0313 -9.71574 -82.6101
rradius 28.5956
rwrist -8.48537
rhand -23.5935 9.08305
rfingers 7.12502
rthumb 2.86996 -20.8774
lclavicle -2.79541e-014 4.57205e-015
lhumerus -31.436 5.23896 83.861
lradius 34.0828
lwrist 9.23159
lhand -23.4298 21.3087
lfingers 7.12502
lthumb 3.028 51.2669
rfemur -21.3805 6.36649 15.3061
rtibia 37.9551
rfoot -13.9717 12.364
rtoes 2.65699
lfemur -8.11922 -0.7033 -17.6189
ltibia 25.082
lfoot -8.90805 -20.4705
ltoes 24.4286
2798
root 1.03045 23.7612 0.0168679 1082.16 -82.636 -361.79
lowerback 10.1166 -0.131932 -1.89522
upperback 1.52375 -0.373194 1.22452
thorax -4.06546 -0.170163 2.39406
lowerneck -17.6175 0.607794 -6.7428
upperneck 30.1111 1.64453 2.67553
head 12.9088 0.101373 2.4147
rclavicle -3.35449e-015 3.97569e-015
rhumerus -30.1561 -10.0235 -82.8229
rradius 28.8618
rwrist -8.47078
rhand -23.9445 8.85899
rfingers 7.12502
rthumb 2.53096 -21.1057
lclavicle -3.35449e-015 3.97569e-015
lhumerus -31.2423 5.11703 83.8901
lradius 33.8737
lwrist 9.18979
lhand -23.7388 20.6962
lfingers 7.12502
lthumb 2.72959 50.6585
rfemur -20.8015 6.65095 15.3688
rtibia 37.7326
rfoot -13.4145 12.889
rtoes 4.0834
lfemur -7.885 -1.05082 -17.496
ltibia 25.2556
lfoot -8.57277 -21.0469
ltoes 26.819
2799
root 0.968178 23.7515 -0.00777726 1080.47 -82.0105 -360.278
lowerback 10.0498 -0.0145561 -1.88851
upperback 1.56964 -0.222777 1.04722
thorax -3.98951 -0.0980213 2.18434
lowerneck -17.649 0.568958 -6.40493
upperneck 30.3834 1.55688 2.42339
head 13.0406 0.0574291 2.25064
rclavicle 2.01021e-014 7.55382e-015
rhumerus -30.3635 -10.3043 -83.065
rradius 29.2604
rwrist -8.81714
rhand -24.2603 8.51031
rfingers 7.12502
rthumb 2.22601 -21.4578
lclavicle 2.01021e-014 7.55382e-015
lhumerus -31.0475 4.47178 84.0843
lradius 33.8239
lwrist 9.39065
lhand -23.6317 20.5478
lfingers 7.12502
lthumb 2.8331 50.5088
rfemur -20.2734 7.11055 15.135
rtibia 37.6012
rfoot -12.9452 13.3202
rtoes 8.19612
lfemur -7.66878 -1.29094 -17.5986
ltibia 25.4266
lfoot -8.39444 -21.4816
ltoes 28.5581
2800
root 0.905351 23.7459 -0.0326576 1078.82 -81.4448 -358.908
lowerback 10.1501 0.0390946 -2.10311
upperback 1.56758 -0.173417 1.12132
thorax -4.04904 -0.0694482 2.3771
lowerneck -17.487 0.612165 -6.61623
upperneck 30.6079 1.71122 2.28189
head 13.0933 0.0699249 2.25762
rclavicle 1.49089e-016 8.54774e-015
rhumerus -30.4782 -9.94873 -83.0864
rradius 29.4711
rwrist -9.24098
rhand -24.0738 8.4052
rfingers 7.12502
rthumb 2.40612 -21.561
lclavicle 1.49089e-016 8.54774e-015
lhumerus -31.1772 4.49062 84.4263
lradius 33.9758
lwrist 9.44582
lhand -23.3661 21.035
lfingers 7.12502
lthumb 3.08953 50.9924
rfemur -19.5496 7.75641 14.8832
rtibia 37.5299
rfoot -12.7495 13.2941
rtoes 12.0753
lfemur -7.26884 -1.70949 -17.7713
ltibia 25.5562
lfoot -8.76906 -21.4572
ltoes 27.3564
2801
root 0.845877 23.7321 -0.0600546 1078.44 -80.769 -358.895
lowerback 10.3122 -0.0276453 -2.08108
upperback 1.56427 -0.256124 1.2894
thorax -4.13725 -0.10894 2.55284
lowerneck -17.1737 0.727671 -7.05826
upperneck 30.8204 1.98513 2.26649
head 13.0975 0.12295 2.36928
rclavicle 3.97569e-015 2.18663e-015
rhumerus -30.6167 -9.20691 -83.1004
rradius 29.7019
rwrist -9.73912
rhand -23.7508 8.55925
rfingers 7.12502
rthumb 2.71804 -21.4032
lclavicle 3.97569e-015 2.18663e-015
lhumerus -31.4767 5.20374 84.6515
lradius 34.1888
lwrist 9.25902
lhand -22.9211 21.3854
lfingers 7.12502
lthumb 3.51929 51.3361
rfemur -18.6309 8.1927 14.9679
rtibia 37.3875
rfoot -13.3919 12.5413
rtoes 11.7051
lfemur -6.80299 -2.33883 -17.7348
ltibia 25.6957
lfoot -9.34504 -21.4781
ltoes 25.0684
